<svg width="29" height="26" viewBox="0 0 29 26" fill="none" xmlns="http://www.w3.org/2000/svg">
<path d="M14.5 0C16.4228 0 18.2669 0.684819 19.6265 1.90381C20.9862 3.12279 21.75 4.77609 21.75 6.5C21.75 8.22391 20.9862 9.87721 19.6265 11.0962C18.2669 12.3152 16.4228 13 14.5 13C12.5772 13 10.7331 12.3152 9.37348 11.0962C8.01384 9.87721 7.25 8.22391 7.25 6.5C7.25 4.77609 8.01384 3.12279 9.37348 1.90381C10.7331 0.684819 12.5772 0 14.5 0ZM14.5 3.25C13.5386 3.25 12.6166 3.59241 11.9367 4.2019C11.2569 4.8114 10.875 5.63805 10.875 6.5C10.875 7.36195 11.2569 8.1886 11.9367 8.7981C12.6166 9.40759 13.5386 9.75 14.5 9.75C15.4614 9.75 16.3834 9.40759 17.0633 8.7981C17.7431 8.1886 18.125 7.36195 18.125 6.5C18.125 5.63805 17.7431 4.8114 17.0633 4.2019C16.3834 3.59241 15.4614 3.25 14.5 3.25ZM14.5 14.625C19.3394 14.625 29 16.7862 29 21.125V26H0V21.125C0 16.7862 9.66062 14.625 14.5 14.625ZM14.5 17.7125C9.11687 17.7125 3.44375 20.085 3.44375 21.125V22.9125H25.5563V21.125C25.5563 20.085 19.8831 17.7125 14.5 17.7125Z" fill="#21A510"/>
</svg>
