<svg width="29" height="26" viewBox="0 0 29 26" fill="none" xmlns="http://www.w3.org/2000/svg">
<path d="M27.2177 4.24954L15.6177 0.186643C15.2644 0.0634245 14.8856 0 14.503 0C14.1205 0 13.7417 0.0634245 13.3883 0.186643L1.78833 4.24954C0.706875 4.62536 0 5.51412 0 6.49937C0 16.5804 6.91771 23.5483 13.3823 25.8134C14.0952 26.0622 14.8987 26.0622 15.6117 25.8134C20.7894 24.0003 29 17.7384 29 6.49937C29 5.51412 28.2931 4.62536 27.2177 4.24954ZM14.506 22.6646L14.5 3.31507L25.1273 7.0377C24.9279 14.7267 20.1671 20.298 14.506 22.6646Z" fill="#21A510"/>
</svg>
