<svg width="29" height="26" viewBox="0 0 29 26" fill="none" xmlns="http://www.w3.org/2000/svg">
<path fill-rule="evenodd" clip-rule="evenodd" d="M2.41667 0H8.45833C9.79302 0 10.875 0.970049 10.875 2.16667V7.58333C10.875 8.77995 9.79302 9.75 8.45833 9.75H2.41667C1.08198 9.75 0 8.77995 0 7.58333V2.16667C0 0.970049 1.08198 0 2.41667 0ZM2.41667 11.9167H8.45833C9.79302 11.9167 10.875 12.8867 10.875 14.0833V23.8333C10.875 25.03 9.79302 26 8.45833 26H2.41667C1.08198 26 0 25.03 0 23.8333V14.0833C0 12.8867 1.08198 11.9167 2.41667 11.9167ZM15.7083 0H26.5833C27.9181 0 29 0.970049 29 2.16667V14.0833C29 15.28 27.9181 16.25 26.5833 16.25H15.7083C14.3736 16.25 13.2917 15.28 13.2917 14.0833V2.16667C13.2917 0.970049 14.3736 0 15.7083 0ZM15.7083 18.4167H26.5833C27.9181 18.4167 29 19.3867 29 20.5833V23.8333C29 25.03 27.9181 26 26.5833 26H15.7083C14.3736 26 13.2917 25.03 13.2917 23.8333V20.5833C13.2917 19.3867 14.3736 18.4167 15.7083 18.4167Z" fill="#21A510"/>
</svg>
