<svg width="33" height="35" viewBox="0 0 33 35" fill="none" xmlns="http://www.w3.org/2000/svg">
<path d="M22.5 25V32.5H2.5V2.5H15V0H2.5C1.83696 0 1.20107 0.263392 0.732233 0.732233C0.263392 1.20107 0 1.83696 0 2.5V32.5C0 33.163 0.263392 33.7989 0.732233 34.2678C1.20107 34.7366 1.83696 35 2.5 35H22.5C23.163 35 23.7989 34.7366 24.2678 34.2678C24.7366 33.7989 25 33.163 25 32.5V25H22.5Z" fill="#06346F"/>
<path d="M31.925 4.70013L27.8 0.575132C27.4261 0.208678 26.9235 0.00341797 26.4 0.00341797C25.8765 0.00341797 25.3739 0.208678 25 0.575132L7.5 18.0751V25.0001H14.4125L31.9125 7.50013C32.279 7.12628 32.4842 6.62364 32.4842 6.10013C32.4842 5.57663 32.279 5.07399 31.9125 4.70013H31.925ZM13.375 22.5001H10V19.1251L21.8 7.31263L25.1875 10.7001L13.375 22.5001ZM26.95 8.93763L23.5625 5.55013L26.4 2.71263L29.7875 6.10013L26.95 8.93763Z" fill="#06346F"/>
</svg>
