<svg width="29" height="26" viewBox="0 0 29 26" fill="none" xmlns="http://www.w3.org/2000/svg">
<path d="M7.90758 0.212407C7.84443 0.145081 7.7694 0.0916619 7.68678 0.0552123C7.60416 0.0187628 7.51559 0 7.42613 0C7.33667 0 7.2481 0.0187628 7.16548 0.0552123C7.08286 0.0916619 7.00783 0.145081 6.94468 0.212407L3.33781 4.02247L2.05206 2.69127C1.98892 2.62394 1.91388 2.57052 1.83127 2.53407C1.74865 2.49762 1.66007 2.47886 1.57062 2.47886C1.48116 2.47886 1.39258 2.49762 1.30997 2.53407C1.22735 2.57052 1.15232 2.62394 1.08917 2.69127L0.199911 3.63731C0.136546 3.7044 0.0862695 3.78413 0.0519642 3.87191C0.017659 3.95969 0 4.0538 0 4.14885C0 4.2439 0.017659 4.33801 0.0519642 4.42579C0.0862695 4.51358 0.136546 4.5933 0.199911 4.66039L2.89544 7.51297C3.02999 7.64886 3.20853 7.72464 3.39416 7.72464C3.5798 7.72464 3.75834 7.64886 3.89288 7.51297L4.77591 6.57295L8.86537 2.22847C8.99279 2.09298 9.06478 1.90958 9.06574 1.71805C9.06669 1.52652 8.99653 1.34231 8.87047 1.20539L7.90758 0.212407ZM7.90758 9.79263C7.84443 9.72531 7.7694 9.67189 7.68678 9.63544C7.60416 9.59899 7.51559 9.58023 7.42613 9.58023C7.33667 9.58023 7.2481 9.59899 7.16548 9.63544C7.08286 9.67189 7.00783 9.72531 6.94468 9.79263L3.33781 13.6274L2.05206 12.2974C1.98892 12.23 1.91388 12.1766 1.83127 12.1402C1.74865 12.1037 1.66007 12.085 1.57062 12.085C1.48116 12.085 1.39258 12.1037 1.30997 12.1402C1.22735 12.1766 1.15232 12.23 1.08917 12.2974L0.199911 13.2416C0.136546 13.3087 0.0862695 13.3884 0.0519642 13.4762C0.017659 13.564 0 13.6581 0 13.7531C0 13.8482 0.017659 13.9423 0.0519642 14.0301C0.0862695 14.1179 0.136546 14.1976 0.199911 14.2647L2.88864 17.1233C3.0231 17.2591 3.20154 17.3349 3.38708 17.3349C3.57262 17.3349 3.75107 17.2591 3.88552 17.1233L4.77478 16.179L8.86424 11.8328C8.99117 11.6982 9.06292 11.5159 9.06388 11.3254C9.06483 11.1349 8.99491 10.9517 8.86933 10.8157L7.90758 9.79263ZM3.62497 20.2226C2.12456 20.2226 0.872803 21.5165 0.872803 23.1113C0.872803 24.7061 2.12569 26 3.62497 26C4.34603 26 5.03756 25.6957 5.54742 25.1539C6.05729 24.6122 6.34373 23.8774 6.34373 23.1113C6.34373 22.3452 6.05729 21.6104 5.54742 21.0687C5.03756 20.527 4.34603 20.2226 3.62497 20.2226ZM28.0937 21.1855H11.7812C11.5409 21.1855 11.3104 21.287 11.1404 21.4675C10.9705 21.6481 10.875 21.893 10.875 22.1484V24.0742C10.875 24.3296 10.9705 24.5745 11.1404 24.7551C11.3104 24.9357 11.5409 25.0371 11.7812 25.0371H28.0937C28.3341 25.0371 28.5646 24.9357 28.7346 24.7551C28.9045 24.5745 29 24.3296 29 24.0742V22.1484C29 21.893 28.9045 21.6481 28.7346 21.4675C28.5646 21.287 28.3341 21.1855 28.0937 21.1855ZM28.0937 1.92757H11.7812C11.5409 1.92757 11.3104 2.02902 11.1404 2.20959C10.9705 2.39017 10.875 2.63509 10.875 2.89046V4.81626C10.875 5.07164 10.9705 5.31655 11.1404 5.49713C11.3104 5.67771 11.5409 5.77916 11.7812 5.77916H28.0937C28.3341 5.77916 28.5646 5.67771 28.7346 5.49713C28.9045 5.31655 29 5.07164 29 4.81626V2.89046C29 2.63509 28.9045 2.39017 28.7346 2.20959C28.5646 2.02902 28.3341 1.92757 28.0937 1.92757ZM28.0937 11.5565H11.7812C11.5409 11.5565 11.3104 11.658 11.1404 11.8386C10.9705 12.0191 10.875 12.2641 10.875 12.5194V14.4452C10.875 14.7006 10.9705 14.9455 11.1404 15.1261C11.3104 15.3067 11.5409 15.4081 11.7812 15.4081H28.0937C28.3341 15.4081 28.5646 15.3067 28.7346 15.1261C28.9045 14.9455 29 14.7006 29 14.4452V12.5194C29 12.2641 28.9045 12.0191 28.7346 11.8386C28.5646 11.658 28.3341 11.5565 28.0937 11.5565Z" fill="#21A510"/>
</svg>
