<svg width="29" height="26" viewBox="0 0 29 26" fill="none" xmlns="http://www.w3.org/2000/svg">
<path fill-rule="evenodd" clip-rule="evenodd" d="M15.7786 0.418553C16.0686 0.161206 16.4576 0.0117963 16.8667 0.00066916C17.2758 -0.0104579 17.6744 0.117532 17.9814 0.358644C18.2884 0.599756 18.4809 0.93591 18.5197 1.29883C18.5585 1.66175 18.4408 2.02422 18.1904 2.31263L18.0567 2.44751L17.3897 3.04156H20.9453C22.1781 3.04149 23.3643 3.46101 24.2613 4.21428C25.1582 4.96754 25.6981 5.99761 25.7704 7.09372L25.7785 7.34626V17.6345C26.8533 17.9734 27.7591 18.6396 28.3358 19.5156C28.9126 20.3916 29.1232 21.421 28.9304 22.4218C28.7376 23.4227 28.1539 24.3307 27.2824 24.9855C26.4109 25.6402 25.3076 25.9995 24.1674 26C23.0526 26.0003 21.9719 25.6573 21.1084 25.0292C20.245 24.401 19.6519 23.5263 19.4297 22.5533C19.2075 21.5803 19.3698 20.5687 19.8891 19.6901C20.4084 18.8114 21.2528 18.1197 22.2793 17.7321L22.5564 17.6345V7.34626C22.5563 6.99481 22.4114 6.65559 22.1492 6.39295C21.887 6.13032 21.5257 5.96253 21.1338 5.92141L20.9453 5.91136H17.3897L18.0567 6.50541C18.3487 6.76303 18.5191 7.11032 18.533 7.47619C18.547 7.84206 18.4034 8.19884 18.1316 8.4735C17.8599 8.74816 17.4806 8.91993 17.0713 8.95365C16.662 8.98737 16.2538 8.88049 15.9301 8.65489L15.7786 8.53436L12.3616 5.49237C12.0835 5.24539 11.9163 4.91647 11.8914 4.56741C11.8665 4.21836 11.9856 3.87322 12.2263 3.59686L12.3616 3.46198L15.777 0.418553H15.7786ZM4.83472 0.17175C5.94958 0.171435 7.03029 0.514409 7.89372 1.14256C8.75716 1.77071 9.35023 2.6454 9.57245 3.61844C9.79466 4.59148 9.63235 5.60302 9.11303 6.48167C8.5937 7.36033 7.7493 8.05206 6.72288 8.43966L6.44577 8.53723V17.6374C7.51832 17.9777 8.42163 18.6441 8.99656 19.5194C9.57149 20.3947 9.78115 21.4226 9.58861 22.4221C9.39606 23.4216 8.81366 24.3284 7.94401 24.983C7.07437 25.6375 5.97327 25.9976 4.83472 26C3.71985 26.0003 2.63915 25.6573 1.77571 25.0292C0.912272 24.401 0.319203 23.5263 0.0969878 22.5533C-0.125227 21.5803 0.0370782 20.5687 0.556404 19.6901C1.07573 18.8114 1.92014 18.1197 2.94656 17.7321L3.22366 17.6345V8.5358C2.14998 8.19623 1.24544 7.52986 0.669605 6.65422C0.0937724 5.77858 -0.116354 4.74995 0.0762956 3.74978C0.268945 2.74961 0.851991 1.84218 1.72258 1.18755C2.59317 0.532922 3.69536 0.173167 4.83472 0.17175ZM24.1674 20.2604C23.7401 20.2604 23.3304 20.4116 23.0282 20.6807C22.7261 20.9498 22.5564 21.3147 22.5564 21.6953C22.5564 22.0759 22.7261 22.4408 23.0282 22.7099C23.3304 22.979 23.7401 23.1302 24.1674 23.1302C24.5947 23.1302 25.0045 22.979 25.3066 22.7099C25.6087 22.4408 25.7785 22.0759 25.7785 21.6953C25.7785 21.3147 25.6087 20.9498 25.3066 20.6807C25.0045 20.4116 24.5947 20.2604 24.1674 20.2604ZM4.83472 20.2604C4.40744 20.2604 3.99766 20.4116 3.69553 20.6807C3.39339 20.9498 3.22366 21.3147 3.22366 21.6953C3.22366 22.0759 3.39339 22.4408 3.69553 22.7099C3.99766 22.979 4.40744 23.1302 4.83472 23.1302C5.262 23.1302 5.67177 22.979 5.97391 22.7099C6.27604 22.4408 6.44577 22.0759 6.44577 21.6953C6.44577 21.3147 6.27604 20.9498 5.97391 20.6807C5.67177 20.4116 5.262 20.2604 4.83472 20.2604ZM4.83472 3.04156C4.40744 3.04156 3.99766 3.19273 3.69553 3.46183C3.39339 3.73093 3.22366 4.0959 3.22366 4.47646C3.22366 4.85702 3.39339 5.22199 3.69553 5.49109C3.99766 5.76018 4.40744 5.91136 4.83472 5.91136C5.262 5.91136 5.67177 5.76018 5.97391 5.49109C6.27604 5.22199 6.44577 4.85702 6.44577 4.47646C6.44577 4.0959 6.27604 3.73093 5.97391 3.46183C5.67177 3.19273 5.262 3.04156 4.83472 3.04156Z" fill="#21A510"/>
</svg>
