<svg width="29" height="26" viewBox="0 0 29 26" fill="none" xmlns="http://www.w3.org/2000/svg">
<path d="M1.61112 26C1.15463 26 0.772265 25.8613 0.464006 25.584C0.155746 25.3066 0.00107963 24.9638 5.55555e-06 24.5555C-0.00106852 24.1472 0.153598 23.8044 0.464006 23.5271C0.774413 23.2498 1.15678 23.1111 1.61112 23.1111H3.22223V1.44444C3.22223 1.03518 3.37689 0.69237 3.68623 0.416C3.99556 0.13963 4.37793 0.000962962 4.83334 0H16.1111C16.5676 0 16.9505 0.138667 17.2598 0.416C17.5692 0.693333 17.7233 1.03615 17.7222 1.44444H24.1667C24.6231 1.44444 25.0061 1.58311 25.3154 1.86044C25.6247 2.13778 25.7788 2.48059 25.7778 2.88889V23.1111H27.3889C27.8454 23.1111 28.2283 23.2498 28.5376 23.5271C28.8469 23.8044 29.0011 24.1472 29 24.5555C28.9989 24.9638 28.8443 25.3071 28.536 25.5854C28.2277 25.8637 27.8454 26.0019 27.3889 26H24.1667C23.7102 26 23.3278 25.8613 23.0196 25.584C22.7113 25.3066 22.5566 24.9638 22.5556 24.5555V4.33333H17.7222V24.5555C17.7222 24.9648 17.5676 25.3081 17.2582 25.5854C16.9489 25.8628 16.5665 26.0009 16.1111 26H1.61112ZM14.5 13C14.5 12.5907 14.3453 12.2479 14.036 11.9715C13.7267 11.6952 13.3443 11.5565 12.8889 11.5555C12.4335 11.5546 12.0511 11.6933 11.7418 11.9715C11.4324 12.2498 11.2778 12.5927 11.2778 13C11.2778 13.4073 11.4324 13.7506 11.7418 14.0299C12.0511 14.3091 12.4335 14.4473 12.8889 14.4444C13.3443 14.4415 13.7272 14.3029 14.0376 14.0284C14.348 13.754 14.5021 13.4112 14.5 13Z" fill="#21A510"/>
</svg>
