<svg width="36" height="36" viewBox="0 0 36 36" fill="none" xmlns="http://www.w3.org/2000/svg">
<path d="M0 35.25V31.3333H3.91667V0H23.5V1.95833H31.3333V31.3333H35.25V35.25H27.4167V5.875H23.5V35.25H0ZM15.6667 19.5833C16.2215 19.5833 16.687 19.3953 17.063 19.0193C17.439 18.6433 17.6263 18.1786 17.625 17.625C17.6237 17.0714 17.4357 16.6067 17.061 16.2307C16.6863 15.8547 16.2215 15.6667 15.6667 15.6667C15.1118 15.6667 14.647 15.8547 14.2723 16.2307C13.8976 16.6067 13.7096 17.0714 13.7083 17.625C13.707 18.1786 13.895 18.644 14.2723 19.0213C14.6496 19.3986 15.1144 19.5859 15.6667 19.5833ZM7.83333 31.3333H19.5833V3.91667H7.83333V31.3333Z" fill="#06346F"/>
</svg>
