<svg width="58" height="52" viewBox="0 0 58 52" fill="none" xmlns="http://www.w3.org/2000/svg">
<path d="M31.9974 36.4473L47.3679 41.4935C51.6542 42.9008 56 39.8876 56 35.7827V14.5133C56 12.012 54.3468 9.73904 51.7946 8.84527L33.374 2.39441C29.065 0.885398 24.6157 3.90597 24.6157 8.0624V29.209L9.61646 34.3263L9.39002 13.4415L9.38132 12.6406L8.48048 12.6493L2.89876 12.7029L2 12.7115L2.00866 13.5105L2.24759 35.5472C2.29215 39.6574 6.68121 42.6294 10.9539 41.1717L24.6157 36.5108V49.2001V50H25.5156H31.0976H31.9974V49.2001V36.4473ZM31.9974 9.23729L48.6183 15.0579V34.6345L31.9974 29.1777V9.23729Z" fill="url(#paint0_linear_2099_1695)" stroke="white" stroke-width="3"/>
<path d="M45.5907 25.111C45.5907 25.7655 45.0081 26.2962 44.2895 26.2962C43.5708 26.2962 42.9883 25.7655 42.9883 25.111C42.9883 24.4564 43.5708 23.9258 44.2895 23.9258C45.0081 23.9258 45.5907 24.4564 45.5907 25.111Z" fill="url(#paint1_linear_2099_1695)" stroke="white"/>
<path d="M44.29 24.5186C44.6931 24.5561 44.8365 24.6854 44.9406 25.1111" stroke="white" stroke-width="0.25"/>
<defs>
<linearGradient id="paint0_linear_2099_1695" x1="29.0043" y1="4.28228" x2="29.0043" y2="49.2001" gradientUnits="userSpaceOnUse">
<stop offset="0.0329173" stop-color="#246B2C"/>
</linearGradient>
<linearGradient id="paint1_linear_2099_1695" x1="44.2895" y1="23.7565" x2="44.2895" y2="26.4655" gradientUnits="userSpaceOnUse">
<stop stop-color="#246B2C"/>
</linearGradient>
</defs>
</svg>
