<svg width="47" height="47" viewBox="0 0 47 47" fill="none" xmlns="http://www.w3.org/2000/svg">
<path d="M5.875 41.125V37.2083H9.79167V5.875H29.375V7.83333H37.2083V37.2083H41.125V41.125H33.2917V11.75H29.375V41.125H5.875ZM21.5417 25.4583C22.0965 25.4583 22.562 25.2703 22.938 24.8943C23.314 24.5183 23.5013 24.0536 23.5 23.5C23.4987 22.9464 23.3107 22.4817 22.936 22.1057C22.5613 21.7297 22.0965 21.5417 21.5417 21.5417C20.9868 21.5417 20.522 21.7297 20.1473 22.1057C19.7726 22.4817 19.5846 22.9464 19.5833 23.5C19.582 24.0536 19.77 24.519 20.1473 24.8963C20.5246 25.2736 20.9894 25.4609 21.5417 25.4583ZM13.7083 37.2083H25.4583V9.79167H13.7083V37.2083Z" fill="#06346F"/>
</svg>
